**ABCDEFGHIJKLMNOPQRSTUVWXYZabcdefghijklmnopqrstuvwxyz**************************
**PARASOLID !"#$%&'()*+,-./:;<=>?@[\]^_`{|}~0123456789**************************
**PART1;
MC=unknown;
MC_MODEL=unknown;
MC_ID=unknown;
OS=unknown;
OS_RELEASE=unknown;
FRU=Parasolid 37.1.212;
APPL=Onshape;
SITE=unknown;
USER=unknown;
FORMAT=text;
GUISE=transmit;
KEY=BTGapi::writeModels_.xmt;
FILE=BTGapi::writeModels_.xmt;
DATE=2026-01-21T17:28:18 (UTC);
**PART2;
SCH=SCH_3701212_37102;
USFLD_SIZE=0;
**PART3;
**END_OF_HEADER*****************************************************************
T51 : TRANSMIT FILE created by modeller version 370121223 SCH_3701212_37102_1300
6239 0 10 21 CCCCI7 lattice222 0 CCCI4 mesh1006 0 I8 polyline1008 0 CCCCCCCCCCA1
6 mesh_offset_data206 0 Z1 5 2 3 0 0 0 0 0 0 0 0 1e3 1e-8 0 0 0 1 0 1 4 0 81 255
 1 2 2 5 1 6 0 0 0 7 70 11 CI9 list_type0 0 1 uI10 notransmit0 0 1 lCCCDCCDI12 f
inger_index0 0 1 dI12 finger_block1012 0 CZ3 0 4 T1 0 0 3 20 1 8 8 11 255 4 3 9
 1 10 11 1 0 0 0 0 81 1 9 5 12 4 0 0 0 0 13 12 36 CCCI7 lattice222 0 CCCI4 mesh1
006 0 I8 polyline1008 0 CCCCCCCDI5 owner1040 0 CCCI16 boundary_lattice222 0 CCCI
13 boundary_mesh1006 0 I17 boundary_polyline1008 0 CCCA16 index_map_offset0 0 1
 dA9 index_map82 0 A17 node_id_index_map82 0 A20 schema_embedding_map82 0 A5 chi
ld12 0 A14 lowest_node_id0 0 1 dA16 mesh_offset_data206 0 Z10 3088 14 15 0 0 0 0
 0 0 0 1e3 1e-8 4 0 0 1 0 1 2 16 0 17 18 19 0 0 20 21 22 0 0 0 0 0 0 0 100 10 CC
CCCCCCCA9 precision229 0 Z11 4 4 0 0 1 0 0 0 1 0 0 0 1 0 0 0 1 0 ?0 81 1 14 3088
 5 10 23 0 0 0 24 70 15 0 4 T10 0 0 4 20 1 25 25 13 255 16 137 0 10 0 27 0 0 30
 0 50 255 17 2966 29 26 28 0 0 +-.0120849061455883 -.0115 .048 .939692620785909
 0 .342020143325668 0 -1 0 30 255 18 2974 0 34 35 0 0 +-.01258466982339066 -.015
77229585366525 .0493730894198256 -.323615577118184 .323615577118184 .88912649071
5989 29 255 19 2851 0 22 32 0 -.0113569656770559 -.013 .046 19 9 CCCCCCI5 frame2
30 0 CA5 owner12 0 Z20 48 0 10 30 0 33 0 V0 16 255 21 2857 0 ?31 0 38 40 0 0 10
 18 255 22 2848 0 31 0 36 19 ?10 17 255 31 0 39 37 41 22 45 21 0 43 +18 36 2839
 0 42 22 44 32 ?10 17 42 0 46 50 43 36 48 38 0 47 +18 44 2830 0 49 36 51 55 ?10
 29 32 2842 0 36 55 19 -.0113569656770559 -.017 .046 29 55 2832 0 44 52 32 -.016
9290252085235 -.0162720595314676 .048 29 52 2828 0 51 53 55 -.0120849061455883 -
.0162720595314676 .048 18 51 2826 0 54 44 57 52 ?10 29 53 2824 0 57 60 52 -.0169
290252085235 -.0137279404685324 .048 18 57 2822 0 59 51 56 53 ?10 29 60 2821 0 5
6 58 53 -.0120849061455883 -.0137279404685324 .048 18 56 2819 0 61 57 62 60 ?10
 29 58 2813 0 62 64 60 -.0176569656770559 -.017 .046 18 62 2810 0 63 56 65 58 ?1
0 29 64 2809 0 65 66 58 -.0176569656770559 -.013 .046 18 65 2806 0 70 62 68 64 ?
10 29 66 2795 0 68 67 64 .0113569656770559 -.017 .046 18 68 2792 0 69 65 72 66 ?
10 29 67 2786 0 72 75 66 .0176569656770559 -.017 .046 18 72 2783 0 74 68 71 67 ?
10 29 75 2776 0 71 73 67 .0169290252085235 -.0137279404685324 .048 18 71 2774 0
 76 72 80 75 ?10 29 73 2772 0 80 77 75 .0169290252085235 -.0162720595314676 .048
 18 80 2770 0 78 71 79 73 ?10 29 77 2768 0 79 81 73 .0120849061455883 -.01627205
95314676 .048 18 79 2766 0 85 80 83 77 ?10 29 81 2765 0 83 82 77 .01208490614558
83 -.0137279404685324 .048 18 83 2763 0 84 79 89 81 ?10 29 82 2757 0 89 90 81 .0
113569656770559 -.013 .046 18 89 2754 0 87 83 88 82 ?10 29 90 2753 0 88 86 82 .0
176569656770559 -.013 .046 18 88 2750 0 93 89 95 90 ?10 29 86 2287 0 95 91 90 .0
0349526519608249 -.023 .01484075511991976 18 95 2285 0 94 88 92 86 ?10 29 91 226
3 0 92 96 86 .003496785182505845 -.023 .01303052250295878 18 92 2261 0 100 95 98
 91 ?10 29 96 2138 0 98 97 91 .002 .0107 .0511 18 98 2135 0 99 92 101 96 ?10 29
 97 2134 0 101 105 96 -.002 .0107 .0511 18 101 2131 0 103 98 102 97 ?10 29 105 2
125 0 102 104 97 .002 .017 .0511 18 102 2122 0 106 101 110 105 ?10 29 104 2121 0
 110 107 105 -.002 .017 .0511 18 110 2118 0 108 102 109 104 ?10 29 107 2111 0 10
9 112 104 .0001000000000000024 .0151 .053 18 109 2109 0 115 110 114 107 ?10 29 1
12 2107 0 114 111 107 .000100000000000003 .0126 .053 18 114 2105 0 113 109 116 1
12 ?10 29 111 2103 0 116 117 112 -999999999999972e-19 .0126 .053 18 116 2101 0 1
19 114 118 111 ?10 29 117 2100 0 118 120 111 -999999999999977e-19 .0151 .053 18
 118 2098 0 121 116 125 117 ?10 29 120 1744 0 125 123 117 .02015441558772845 -.0
1865441558772845 0 18 125 1742 0 122 118 124 120 ?10 29 123 1740 0 124 127 120 -
.02015441558772845 -.01865441558772845 0 18 124 1738 0 130 125 129 123 ?10 29 12
7 1736 0 129 126 123 .02015441558772845 .01865441558772845 0 18 129 1734 0 128 1
24 131 127 ?10 29 126 1733 0 131 135 127 -.02015441558772845 .01865441558772845
 0 18 131 1731 0 132 129 133 126 ?10 29 135 1722 0 133 134 126 .0245 .0186544155
8772845 .004345584412271575 18 133 1720 0 136 131 140 135 ?10 29 134 1719 0 140
 138 135 .0245 -.01865441558772845 .004345584412271575 18 140 1717 0 137 133 139
 134 ?10 29 138 1708 0 139 144 134 -.02015441558772845 .023 .004345584412271575
 18 139 1706 0 145 140 142 138 ?10 29 144 1705 0 142 143 138 .02015441558772845
 .023 .004345584412271575 18 142 1703 0 141 139 148 144 ?10 29 143 1694 0 148 15
0 144 -.0245 -.01865441558772845 .00434558441227157 18 148 1692 0 146 142 149 14
3 ?10 29 150 1691 0 149 147 143 -.0245 .01865441558772845 .00434558441227157 18
 149 1689 0 151 148 155 150 ?10 29 147 1678 0 155 153 150 .002 -.018654415587728
45 .0237 18 155 1675 0 152 149 154 147 ?10 29 153 1669 0 154 156 147 -.002 -.018
65441558772845 .0237 18 154 1666 0 160 155 158 153 ?10 29 156 1635 0 158 157 153
 -.0245 -.01865441558772845 .03 18 158 1632 0 159 154 161 156 ?10 29 157 1631 0
 161 165 156 -.0245 .01865441558772845 .03 18 161 1628 0 162 158 163 157 ?10 29
 165 1627 0 163 164 157 .02015441558772845 .023 .03 18 163 1624 0 167 161 170 16
5 ?10 29 164 1623 0 170 169 165 -.02015441558772845 .023 .03 18 170 1620 0 166 1
63 168 164 ?10 29 169 1619 0 168 171 164 .0245 -.01865441558772845 .03 18 168 16
16 0 172 170 174 169 ?10 29 171 1615 0 174 173 169 .0245 .01865441558772845 .03
 18 174 1612 0 175 168 176 171 ?10 29 173 1611 0 176 180 171 .002 -.018654415587
72845 .03 18 176 1608 0 178 174 177 173 ?10 29 180 1607 0 177 179 173 -.002 -.01
865441558772845 .03 18 177 1604 0 182 176 185 180 ?10 29 179 1597 0 185 184 180
 -.00634558441227157 -.023 .01935441558772845 18 185 1595 0 181 177 183 179 ?10
 29 184 1593 0 183 186 179 .00634558441227158 -.023 .01935441558772845 18 183 15
91 0 190 185 187 184 ?10 29 186 1582 0 187 188 184 .02015441558772845 -.023 .004
34558441227157 18 187 1580 0 189 183 191 186 ?10 29 188 1579 0 191 195 186 -.020
15441558772845 -.023 .00434558441227157 18 191 1577 0 193 187 192 188 ?10 29 195
 1576 0 192 194 188 .02015441558772845 -.023 .03 18 192 1573 0 199 191 200 195 ?
10 29 194 1572 0 200 197 195 .00634558441227158 -.023 .03 18 200 1569 0 198 192
 196 194 ?10 29 197 1568 0 196 203 194 -.00634558441227157 -.023 .03 18 196 1565
 0 205 200 201 197 ?10 29 203 1564 0 201 204 197 -.02015441558772845 -.023 .03 1
8 201 1561 0 202 196 206 203 ?10 29 204 1043 0 206 210 203 .0176569656770559 .01
5 .03 18 206 1041 0 208 201 207 204 ?10 29 210 1032 0 207 209 204 -.011356965677
0559 .015 .03 18 207 1030 0 211 206 215 210 ?10 29 209 746 0 215 213 210 .002 .0
17 .03 18 215 744 0 212 207 214 209 ?10 29 213 740 0 214 216 209 -.002 .017 .03
 18 214 738 0 220 215 217 213 ?10 29 216 251 0 217 218 213 -.0113569656770559 -.
017 .03 18 217 249 0 50 214 219 216 ?10 29 218 234 0 219 222 216 .01135696567705
59 -.017 .03 18 219 232 0 225 217 224 218 ?10 29 222 231 0 224 221 218 .01765696
56770559 -.017 .03 18 224 229 0 223 219 226 222 ?10 29 221 600 0 226 227 222 -.0
176569656770559 -.017 .03 18 226 360 0 229 224 228 221 ?10 29 227 1426 0 230 231
 221 .002 .0107 .03 18 230 1340 0 235 233 232 227 ?10 29 231 1429 0 232 234 227
 -.002 .0107 .03 18 232 1328 0 237 230 240 231 ?10 29 234 1430 0 228 239 231 .00
2 .0107 .0237 18 228 1326 0 236 226 233 234 ?10 29 239 1433 0 233 238 234 -.002
 .0107 .0237 18 233 1330 0 241 228 230 239 ?10 29 238 1434 0 245 242 239 .011356
9656770559 .015 .03 18 245 1164 0 243 244 246 238 ?10 29 242 1436 0 246 250 238
 .0176569656770559 -.013 .03 18 246 1156 0 248 245 247 242 ?10 29 250 1437 0 247
 249 242 .0113569656770559 -.013 .03 18 247 1152 0 254 246 255 250 ?10 29 249 14
38 0 252 253 250 .0113569656770559 .015 .0237 18 252 1150 0 251 258 260 249 ?10
 29 253 1439 0 260 256 249 .0176569656770559 .015 .0237 18 260 1162 0 259 252 25
7 253 ?10 29 256 1440 0 257 261 253 .0176569656770559 -.013 .0237 18 257 1158 0
 265 260 244 256 ?10 29 261 1441 0 244 263 256 .0113569656770559 -.013 .0237 18
 244 1154 0 262 257 245 261 ?10 29 263 1442 0 264 266 261 -.0176569656770559 -.0
13 .03 18 264 1249 0 270 268 267 263 ?10 29 266 1443 0 267 269 263 -.01765696567
70559 .015 .03 18 267 1245 0 271 264 258 266 ?10 29 269 1445 0 258 275 266 -.011
3569656770559 -.013 .03 18 258 1237 0 37 267 252 269 ?10 29 275 1446 0 240 272 2
69 -.0176569656770559 -.013 .0237 18 240 1235 0 273 232 274 275 ?10 29 272 1447
 0 274 277 275 -.0176569656770559 .015 .0237 18 274 1247 0 280 240 279 272 ?10 2
9 277 1448 0 279 276 272 -.0113569656770559 .015 .0237 18 279 1243 0 278 274 268
 277 ?10 29 276 1449 0 268 281 277 -.0113569656770559 -.013 .0237 18 268 1239 0
 282 279 264 276 ?10 29 281 2590 0 255 284 276 -.00381643361350347 -.023 .013641
5706947446 18 255 2458 0 283 247 285 281 ?10 29 284 2591 0 285 286 281 .00349678
5182505845 -.023 .0136415706947446 18 285 2461 0 290 255 288 284 ?10 29 286 2592
 0 288 287 284 -.00381643361350347 -.023 .01184075511991976 18 288 2467 0 289 28
5 292 286 ?10 29 287 2593 0 292 295 286 .00349526519608249 -.023 .01184075511991
976 18 292 2470 0 294 288 291 287 ?10 29 295 2594 0 291 293 287 -.00381643361350
347 -.023 .01484075511991976 18 291 2447 0 296 292 300 295 ?10 29 293 2596 0 300
 297 295 -.00381643361350347 -.023 .01303052250295878 18 300 2440 0 298 291 299
 293 ?10 29 297 2606 0 299 301 293 -.00381643361350347 -.015 .01303052250295878
 18 299 2441 0 305 300 303 297 ?10 29 301 2607 0 303 302 297 .003496785182505845
 -.015 .01303052250295878 18 303 2456 0 304 299 309 301 ?10 29 302 2608 0 309 31
0 301 .003496785182505845 -.015 .0136415706947446 18 309 2445 0 307 303 308 302
 ?10 29 310 2609 0 308 306 302 -.00381643361350347 -.015 .0136415706947446 18 30
8 2443 0 313 309 315 310 ?10 29 306 2610 0 315 311 310 -.00381643361350347 -.015
 .01484075511991976 18 315 2448 0 314 308 312 306 ?10 29 311 2611 0 312 316 306
 .00349526519608249 -.015 .01484075511991976 18 312 2454 0 320 315 318 311 ?10 2
9 316 2612 0 318 317 311 .00349526519608249 -.015 .01184075511991976 18 318 2452
 0 319 312 321 316 ?10 29 317 2613 0 321 0 316 -.00381643361350347 -.015 .011840
75511991976 18 321 2450 0 325 318 0 317 ?10 17 325 0 323 322 289 321 324 326 0 3
30 -15 255 323 2495 0 289 327 0 17 322 0 323 328 325 315 329 332 0 0 +17 289 0 3
23 325 328 288 335 334 0 324 +17 324 0 331 294 330 288 325 326 0 333 +16 326 234
1 0 ?324 336 337 339 0 0 10 17 330 0 331 324 319 321 338 340 0 329 +15 331 2499
 0 294 341 0 17 319 0 331 330 294 318 345 337 0 338 -17 338 0 343 342 329 318 33
0 340 0 344 -16 340 2419 0 ?330 347 332 350 0 0 10 17 329 0 343 338 349 321 322
 332 0 0 -15 343 2547 0 329 346 348 17 349 0 343 329 342 315 351 355 0 322 +16 3
32 2416 0 ?322 340 352 353 0 0 10 16 352 2892 0 ?354 332 356 360 0 0 10 31 255 3
53 2589 0 332 0 350 0 +-.00381643361350347 -.015 .01334075511991976 0 1 0 0 0 -1
 .0015 30 350 2588 0 340 353 358 0 +-.0001605842087104895 -.015 .011840755119919
76 -1 0 0 31 358 2587 0 347 350 357 0 +.00349526519608249 -.015 .013340755119919
76 0 -1 0 0 0 -1 .0015 16 347 2353 0 ?342 355 340 358 0 0 10 30 357 2586 0 355 3
58 359 0 +-.0001605842087104895 -.015 .01484075511991976 -1 0 0 16 355 2362 0 ?3
49 364 347 357 0 0 10 30 359 2585 0 364 357 365 0 +-.00381643361350347 -.015 .01
333604659885168 0 0 -1 16 364 2422 0 ?362 363 355 359 0 0 10 30 365 2584 0 363 3
59 361 0 +-.000159824215498812 -.015 .0136415706947446 1 0 0 16 363 2329 0 ?368
 370 364 365 0 0 10 30 361 2583 0 370 365 366 0 +.003496785182505845 -.015 .0133
3604659885168 0 0 -1 16 370 2338 0 ?369 367 363 361 0 0 10 30 366 2582 0 367 361
 371 0 +-.000159824215498812 -.015 .01303052250295878 1 0 0 16 367 2425 0 ?375 3
73 370 366 0 0 10 30 371 2573 0 336 366 372 0 +-.00381643361350347 -.015 .013030
52250295878 0 -1 0 16 336 2365 0 ?374 376 326 371 0 0 10 30 372 2572 0 376 371 3
80 0 +.003496785182505845 -.015 .01303052250295878 0 -1 0 16 376 2332 0 ?100 378
 336 372 0 0 10 30 380 2571 0 378 372 377 0 +.003496785182505845 -.015 .01364157
06947446 0 -1 0 16 378 2323 0 ?379 381 376 380 0 0 10 30 377 2570 0 381 380 385
 0 +-.00381643361350347 -.015 .0136415706947446 0 -1 0 16 381 2320 0 ?382 383 37
8 377 0 0 10 30 385 2569 0 373 377 384 0 +-.00381643361350347 -.015 .01484075511
991976 0 -1 0 16 373 2356 0 ?328 387 367 385 0 0 10 30 384 2568 0 387 385 390 0
 +.00349526519608249 -.015 .01484075511991976 0 -1 0 16 387 2347 0 ?94 337 373 3
84 0 0 10 30 390 2567 0 337 384 339 0 +.00349526519608249 -.015 .011840755119919
76 0 -1 0 16 337 2344 0 ?345 326 387 390 0 0 10 30 339 2566 0 326 390 389 0 +-.0
0381643361350347 -.015 .01184075511991976 0 -1 0 30 389 1425 0 386 339 388 0 +-.
0145069656770559 -.013 .0237 -1 0 0 16 386 1219 0 ?391 392 394 389 0 0 10 30 388
 1424 0 392 389 393 0 +-.0113569656770559 .001 .0237 0 1 0 16 392 1199 0 ?395 39
6 386 388 0 0 10 30 393 1423 0 396 388 400 0 +-.0145069656770559 .015 .0237 -1 0
 0 16 396 1205 0 ?398 397 392 393 0 0 10 30 400 1422 0 397 393 399 0 +-.01765696
56770559 .001 .0237 0 1 0 16 397 1222 0 ?402 405 396 400 0 0 10 30 399 1420 0 40
4 400 401 0 +-.0113569656770559 .001 .03 0 1 0 16 404 1225 0 ?211 403 406 399 0
 0 10 30 401 1419 0 403 399 410 0 +-.0145069656770559 .015 .03 -1 0 0 16 403 123
0 0 ?407 394 404 401 0 0 10 30 410 1418 0 394 401 408 0 +-.0176569656770559 .001
 .03 0 1 0 16 394 1211 0 ?409 386 403 410 0 0 10 30 408 1417 0 405 410 411 0 +-.
0176569656770559 -.013 .0237 0 0 1 16 405 1216 0 ?415 413 397 408 0 0 10 30 411
 1416 0 413 408 412 0 +-.0176569656770559 .015 .0237 0 0 1 16 413 1208 0 ?271 41
4 405 411 0 0 10 30 412 1415 0 414 411 419 0 +-.0113569656770559 .015 .0237 0 0
 1 16 414 1202 0 ?420 417 413 412 0 0 10 30 419 1414 0 417 412 418 0 +-.01135696
56770559 -.013 .0237 0 0 1 16 417 1196 0 ?416 423 414 419 0 0 10 30 418 1413 0 4
25 419 421 0 +.0113569656770559 .001 .0237 371726459137887e-30 1 0 16 425 1134 0
 ?424 422 426 418 0 0 10 30 421 1412 0 422 418 430 0 +.0145069656770559 -.013 .0
237 1 -550705865389463e-30 0 16 422 1114 0 ?428 427 425 421 0 0 10 30 430 1411 0
 427 421 429 0 +.0176569656770559 .001 .0237 247817639425258e-30 1 0 16 427 1120
 0 ?431 435 422 430 0 0 10 30 429 1410 0 435 430 433 0 +.0145069656770559 .015 .
0237 1 -550705865389462e-30 0 16 435 1137 0 ?432 434 427 429 0 0 10 30 433 1409
 0 436 429 440 0 +.0113569656770559 .001 .03 371726459137887e-30 1 0 16 436 1106
 0 ?437 438 439 433 0 0 10 30 440 1407 0 438 433 442 0 +.0176569656770559 .001 .
03 247817639425258e-30 1 0 16 438 1145 0 ?208 426 436 440 0 0 10 30 442 1406 0 4
26 440 445 0 +.0145069656770559 .015 .03 1 -550705865389462e-30 0 16 426 1126 0
 ?444 425 438 442 0 0 10 30 445 1405 0 434 442 441 0 +.0113569656770559 .015 .02
37 0 0 1 16 434 1131 0 ?243 443 435 445 0 0 10 30 441 1404 0 443 445 446 0 +.017
6569656770559 .015 .0237 0 0 1 16 443 1123 0 ?447 449 434 441 0 0 10 30 446 1403
 0 449 441 448 0 +.0176569656770559 -.013 .0237 0 0 1 16 449 1117 0 ?450 406 443
 446 0 0 10 30 448 1402 0 406 446 451 0 +.0113569656770559 -.013 .0237 0 0 1 16
 406 1111 0 ?455 404 449 448 0 0 10 30 451 1401 0 453 448 452 0 +346944695195361
5e-33 .0107 .0237 1 0 0 16 453 1310 0 ?454 457 460 451 0 0 10 30 452 1400 0 457
 451 459 0 +-.002 -.00615 .0237 0 -1 0 16 457 1284 0 ?456 458 453 452 0 0 10 30
 459 1398 0 458 452 461 0 +.002 -.00615 .0237 514754740645937e-31 -1 0 16 458 13
13 0 ?465 462 457 459 0 0 10 30 461 1396 0 423 459 463 0 +-.002 -.00615 .03 0 -1
 0 16 423 1316 0 ?464 460 417 461 0 0 10 30 463 1394 0 460 461 466 0 +.002 -.006
15 .03 514754740645937e-31 -1 0 16 460 1302 0 ?470 453 423 463 0 0 10 30 466 139
3 0 462 463 468 0 +.002 .0107 .0237 0 0 1 16 462 1307 0 ?467 469 458 466 0 0 10
 30 468 1390 0 469 466 474 0 +-.002 .0107 .0237 0 0 1 16 469 1281 0 ?475 472 462
 468 0 0 10 30 474 916 0 472 468 473 0 +-.002 .0107 .053 0 0 -1 16 472 2132 0 ?2
37 471 469 474 0 0 10 30 473 915 0 471 474 478 0 +-.002 .017 .053 0 0 -1 16 471
 2119 0 ?220 480 472 473 0 0 10 30 478 914 0 480 473 476 0 +.002 .017 .053 0 0 -
1 16 480 2123 0 ?212 479 471 478 0 0 10 30 476 913 0 479 478 477 0 +.002 .0107 .
053 0 0 -1 16 479 2136 0 ?235 481 480 476 0 0 10 30 477 912 0 481 476 485 0 +-.0
02 -413029399042096e-33 .03 2065146995210485e-31 -1 0 16 481 819 0 ?483 482 479
 477 0 0 10 30 485 911 0 482 477 484 0 +0 .017 .03 1 0 0 16 482 787 0 ?486 490 4
81 485 0 0 10 30 484 910 0 490 485 488 0 +.002 413029399042098e-33 .03 206514699
5210485e-31 -1 0 16 490 776 0 ?487 489 482 484 0 0 10 30 488 588 0 491 484 495 0
 +-.0176569656770559 -.017 .048 0 0 -1 16 491 2811 0 ?229 492 493 488 0 0 10 30
 495 587 0 492 488 494 0 +-.0176569656770559 -.013 .048 0 0 -1 16 492 2807 0 ?27
0 497 491 495 0 0 10 30 494 586 0 497 495 500 0 +-.0113569656770559 -.013 .048 0
 0 -1 16 497 2849 0 ?37 499 492 494 0 0 10 30 500 585 0 499 494 496 0 +-.0113569
656770559 -.017 .048 0 0 -1 16 499 2840 0 ?50 498 497 500 0 0 10 30 496 576 0 48
9 500 501 0 +.0113569656770559 -.013 .048 0 0 -1 16 489 2755 0 ?254 502 490 496
 0 0 10 30 501 575 0 502 496 504 0 +.0176569656770559 -.013 .048 0 0 -1 16 502 2
751 0 ?248 503 489 501 0 0 10 30 504 574 0 503 501 505 0 +.0176569656770559 -.01
7 .048 0 0 -1 16 503 2784 0 ?223 493 502 504 0 0 10 30 505 573 0 493 504 506 0 +
.0113569656770559 -.017 .048 0 0 -1 16 493 2793 0 ?225 491 503 505 0 0 10 30 506
 571 0 498 505 510 0 +.0176569656770559 0 .03 0 -1 0 16 498 435 0 ?508 507 499 5
06 0 0 10 30 510 570 0 507 506 509 0 +0 -.017 .03 -1 0 0 16 507 424 0 ?512 515 4
98 510 0 0 10 30 509 569 0 515 510 514 0 +.0113569656770559 -492529874396292e-32
 .03 -4336808689942015e-31 -1 0 16 515 452 0 ?511 513 507 509 0 0 10 30 514 568
 0 513 509 516 0 +-.0176569656770559 0 .03 0 -1 0 16 513 338 0 ?520 517 515 514
 0 0 10 30 516 566 0 517 514 518 0 +-.0113569656770559 0 .03 0 -1 0 16 517 295 0
 ?519 521 513 516 0 0 10 30 518 565 0 521 516 525 0 +0 -.017 .03 1 0 0 16 521 32
3 0 ?523 522 517 518 0 0 10 30 525 9 0 522 518 524 0 +3469446951953615e-33 .023
 .03 1 0 0 16 522 1621 0 ?529 530 521 525 0 0 10 30 524 14 0 530 525 527 0 +-.02
45 0 .03 -150845519650157e-30 -1 0 16 530 1629 0 ?528 526 522 524 0 0 10 30 527
 19 0 526 524 533 0 +-3469446951953615e-33 -.023 .03 1 0 0 16 526 1570 0 ?535 53
1 530 527 531 531 10 30 533 24 0 534 527 532 0 +.0245 0 .03 -150845519650157e-30
 -1 0 16 534 1613 0 ?536 540 531 533 0 0 10 30 532 1583 0 540 533 538 0 +-346944
6951953615e-33 -.023 .00434558441227157 1 0 0 16 540 1581 0 ?189 537 534 532 0 0
 10 30 538 1585 0 537 532 539 0 +-.02015441558772845 -.023 .03 0 0 -1 16 537 158
4 0 ?193 541 540 538 0 0 10 30 539 1588 0 541 538 545 0 -.02015441558772845 -.02
3 .03 0 0 -1 16 541 1586 0 ?199 543 537 539 0 0 10 30 545 1594 0 543 539 542 0 -
.00634558441227158 -.023 .0237 0 0 1 16 543 1592 0 ?190 544 541 545 0 0 10 30 54
2 1598 0 544 545 546 0 --.002 -.023 .01935441558772845 1 0 0 16 544 1596 0 ?181
 550 543 542 0 0 10 30 546 1601 0 550 542 547 0 +-.00634558441227157 -.023 .03 0
 0 1 16 550 1599 0 ?548 549 544 546 0 0 10 31 547 1638 0 549 546 552 0 +-.020154
41558772845 -.01865441558772845 .03 0 0 1 1 0 0 .004345584412271575 16 549 1636
 0 ?202 555 550 547 0 0 10 31 552 1643 0 555 547 554 0 +.02015441558772845 -.018
65441558772845 .03 0 0 1 1 0 0 .004345584412271575 16 555 1641 0 ?172 551 549 55
2 0 0 10 31 554 1648 0 551 552 553 0 +.02015441558772845 .01865441558772845 .03
 0 0 1 1 0 0 .004345584412271575 16 551 1646 0 ?167 556 555 554 0 0 10 31 553 16
53 0 556 554 557 0 +-.02015441558772845 .01865441558772845 .03 0 0 1 1 0 0 .0043
45584412271575 16 556 1651 0 ?162 559 551 553 0 0 10 31 557 1658 0 559 553 558 0
 +.00634558441227158 -.01865441558772845 .03 0 0 1 1 0 0 .004345584412271575 16
 559 1656 0 ?198 560 556 557 0 0 10 31 558 1663 0 560 557 561 0 +-.0063455844122
7157 -.01865441558772845 .03 0 0 1 1 0 0 .004345584412271575 16 560 1661 0 ?182
 565 559 558 0 0 10 30 561 1672 0 565 558 563 0 --.002 -.01865441558772845 .0237
 0 0 1 16 565 1670 0 ?160 562 560 561 0 0 10 30 563 1681 0 562 561 564 0 +.002 -
.01865441558772845 .0237 1 0 0 16 562 1679 0 ?152 567 565 563 0 0 10 30 564 1686
 0 567 563 570 0 +.002 -.01865441558772845 .03 0 0 1 16 567 1684 0 ?178 569 562
 564 0 0 10 30 570 1695 0 569 564 566 0 +-.0245 0 .00434558441227157 -1508455196
50157e-30 -1 0 16 569 1693 0 ?146 568 567 570 0 0 10 30 566 1697 0 568 570 571 0
 --.0245 -.01865441558772845 .03 0 0 -1 16 568 1696 0 ?159 575 569 566 0 0 10 30
 571 1700 0 575 566 572 0 +-.0245 .01865441558772845 0 0 0 -1 16 575 1698 0 ?573
 574 568 571 0 0 10 30 572 1709 0 574 571 576 0 --.0245 .023 .004345584412271575
 1 0 0 16 574 1707 0 ?145 580 575 572 0 0 10 30 576 1711 0 580 572 578 0 +.02015
441558772845 .023 .03 0 0 -1 16 580 1710 0 ?141 577 574 576 0 0 10 30 578 1714 0
 577 576 579 0 --.02015441558772845 .023 .03 0 0 -1 16 577 1712 0 ?166 584 580 5
78 0 0 10 30 579 1723 0 584 578 585 0 -.0245 .023 .004345584412271575 -150845519
650157e-30 -1 0 16 584 1721 0 ?136 582 577 579 0 0 10 30 585 1725 0 582 579 583
 0 +.0245 -.01865441558772845 0 0 0 -1 16 582 1724 0 ?137 581 584 585 0 0 10 30
 583 1728 0 581 585 588 0 -.0245 .01865441558772845 .03 0 0 -1 16 581 1726 0 ?17
5 590 582 583 0 0 10 30 588 1737 0 590 583 586 0 +.0245 .01865441558772845 0 1 0
 0 16 590 1735 0 ?128 589 581 588 0 0 10 30 586 1741 0 589 588 587 0 --.02015441
558772845 3040203292576125e-33 0 -150845519650157e-30 -1 0 16 589 1739 0 ?132 59
1 590 586 0 0 10 30 587 1745 0 591 586 595 0 +.02015441558772845 -.023 0 -150845
519650157e-30 -1 0 16 591 1743 0 ?593 592 589 587 0 0 10 30 595 1748 0 592 587 5
94 0 -0 -.01865441558772845 0 1 0 0 16 592 1746 0 ?130 596 591 595 0 0 10 32 255
 594 1795 0 600 595 598 0 +-.00634558441227157 -.01865441558772845 .019354415587
72845 -.707106781186548 0 .707106781186548 .707106781186548 0 .707106781186548 .
00614558441227157 .004345584412271575 16 600 1780 0 ?597 439 599 594 0 0 10 32 5
98 1794 0 439 594 601 0 +.00634558441227158 -.01865441558772845 .019354415587728
45 -.707106781186548 0 -.707106781186548 -.707106781186548 0 .707106781186548 .0
0614558441227157 .004345584412271575 16 439 1777 0 ?605 436 600 598 0 0 10 31 60
1 1911 0 602 598 603 0 --.0201544155877284 .01865441558772845 .00434558441227157
 0 399192217064773e-30 -1 0 1 399192217064773e-30 .004345584412271575 16 602 186
7 0 ?151 604 607 601 0 0 10 31 603 1910 0 604 601 610 0 +-.02015441558772845 .01
865441558772845 .004345584412271575 -1 0 0 0 0 1 .004345584412271575 16 604 1863
 0 ?609 606 602 603 0 0 10 31 610 1909 0 606 603 608 0 +-.02015441558772845 .018
65441558772845 .004345584412271575 0 1 0 0 0 1 .004345584412271575 16 606 1862 0
 ?611 612 604 610 0 0 10 31 608 1908 0 612 610 614 0 -.02015441558772845 .018654
41558772845 .004345584412271575 1 0 0 0 0 -1 .004345584412271575 16 612 1860 0 ?
613 615 606 608 0 0 10 31 614 1907 0 615 608 616 0 --.02015441558772845 -.018654
41558772845 .00434558441227157 0 -1 0 0 0 -1 .004345584412271575 16 615 1857 0 ?
620 618 612 614 0 0 10 31 616 1906 0 618 614 617 0 +.02015441558772845 .01865441
558772845 .004345584412271575 0 0 -1 -1 0 0 .004345584412271575 16 618 1855 0 ?6
19 622 615 616 0 0 10 31 617 1905 0 622 616 625 0 +.02015441558772845 .018654415
58772845 .004345584412271575 0 1 0 0 0 1 .004345584412271575 16 622 1854 0 ?624
 621 618 617 0 0 10 31 625 1904 0 621 617 623 0 +-.02015441558772845 -.018654415
58772845 .004345584412271575 -1 0 0 0 0 1 .004345584412271575 16 621 1853 0 ?626
 630 622 625 0 0 10 31 623 1903 0 630 625 627 0 +-.02015441558772845 -.018654415
58772845 .00434558441227157 0 0 -1 -1 0 0 .004345584412271575 16 630 1852 0 ?628
 629 621 623 0 0 10 31 627 1902 0 629 623 631 0 -.02015441558772845 -.0186544155
8772845 .004345584412271575 0 -1 0 0 0 -1 .004345584412271575 16 629 1847 0 ?635
 633 630 627 0 0 10 31 631 1901 0 633 627 632 0 -.02015441558772845 -.0186544155
8772845 .00434558441227157 1 0 0 0 0 -1 .004345584412271575 16 633 1844 0 ?634 5
99 629 631 0 0 10 31 632 1900 0 599 631 639 0 +.0201544155877284 -.0186544155877
2845 .004345584412271575 0 399192217064773e-30 -1 0 1 399192217064773e-30 .00434
5584412271575 16 599 1839 0 ?640 600 633 632 0 0 10 30 639 2104 0 596 632 637 0
 --999999999999974e-19 .01385 .053 -2065146995210485e-31 1 0 16 596 2102 0 ?119
 638 592 639 0 0 10 30 637 2108 0 638 639 636 0 -433680868994202e-32 .0126 .053
 -1 0 0 16 638 2106 0 ?113 643 596 637 0 0 10 30 636 2112 0 643 637 645 0 +-.002
 .0151 .053 -1 0 0 16 643 2110 0 ?641 644 638 636 0 0 10 30 645 2115 0 644 636 6
42 0 +.000100000000000002 .017 .053 -2065146995210485e-31 1 0 16 644 2113 0 ?115
 646 643 645 0 0 10 30 642 2128 0 646 645 650 0 -.002 .017 .0511 -1 0 0 16 646 2
126 0 ?648 647 644 642 0 0 10 30 650 2141 0 647 642 649 0 +3252606517456515e-33
 .0107 .0511 -1 0 0 16 647 2139 0 ?103 651 646 650 0 0 10 30 649 2146 0 651 650
 655 0 -.002 .0107 .0511 -2065146995210485e-31 1 0 16 651 2144 0 ?99 653 647 649
 0 0 10 30 655 2151 0 653 649 652 0 +-.002 .01385 .0511 -2065146995210485e-31 1
 0 16 653 2149 0 ?108 654 651 655 0 0 10 32 652 2200 0 383 655 656 0 +-999999999
999977e-19 .0151 .0511 .707106781186548 .707106781186548 0 -.707106781186548 .70
7106781186548 0 .00268700576850888 .0019 16 383 2184 0 ?121 660 381 652 0 0 10 3
2 656 2199 0 660 652 657 0 -.0001000000000000024 .0151 .0511 .707106781186548 -.
707106781186548 0 -.707106781186548 -.707106781186548 0 .00268700576850888 .0019
 16 660 2182 0 ?106 658 383 656 0 0 10 32 657 2198 0 658 656 659 0 +-99999999999
9972e-19 .0126 .0511 -.707106781186548 .707106781186548 0 .707106781186548 .7071
06781186548 0 .00268700576850888 .0019 16 658 2179 0 ?662 607 660 657 0 0 10 32
 659 2197 0 607 657 665 0 -.000100000000000003 .0126 .0511 -.707106781186548 -.7
07106781186548 0 .707106781186548 -.707106781186548 0 .00268700576850888 .0019 1
6 607 2176 0 ?664 602 658 659 0 0 10 30 665 2267 0 654 659 661 0 +-3469446951953
615e-33 -.023 .01303052250295878 -1 0 0 16 654 2265 0 ?298 663 653 665 0 0 10 30
 661 2271 0 663 665 666 0 +.003496785182505845 -.023 .03 0 0 1 16 663 2269 0 ?66
7 669 654 661 0 0 10 30 666 2275 0 669 661 668 0 +-3469446951953615e-33 -.023 .0
136415706947446 -1 0 0 16 669 2273 0 ?670 671 663 666 0 0 10 30 668 2278 0 671 6
66 675 0 +-.00381643361350347 -.023 .03 0 0 1 16 671 2276 0 ?283 673 669 668 0 0
 10 30 675 2288 0 673 668 672 0 +-3469446951953615e-33 -.023 .01484075511991976
 1 0 0 16 673 2286 0 ?674 677 671 675 0 0 10 31 672 2292 0 677 675 680 0 +.00349
526519608249 -.023 .01334075511991976 0 1 0 0 0 1 .0015 16 677 2290 0 ?679 676 6
73 672 0 0 10 30 680 2296 0 676 672 678 0 +-3469446951953615e-33 -.023 .01184075
511991976 1 0 0 16 676 2294 0 ?294 334 677 680 0 0 10 31 678 2299 0 334 680 681
 0 --.00381643361350347 -.023 .01334075511991976 0 1 0 0 0 1 .0015 16 334 2297 0
 ?289 685 676 678 0 0 10 30 681 2760 0 685 678 682 0 +.0145069656770559 -.013 .0
46 1 -550705865389463e-30 0 16 685 2758 0 ?683 684 334 681 0 0 10 30 682 2769 0
 684 681 686 0 +.0120849061455883 -.0115 .048 -4336808689942015e-31 -1 0 16 684
 2767 0 ?85 690 685 682 0 0 10 30 686 2773 0 690 682 688 0 +.0176569656770559 -.
0162720595314676 .048 1 0 0 16 690 2771 0 ?78 687 684 686 0 0 10 30 688 2777 0 6
87 686 689 0 +.0169290252085235 -.013 .048 0 1 0 16 687 2775 0 ?76 694 690 688 0
 0 10 30 689 2780 0 694 688 695 0 +-122693988375934e-32 -.0137279404685324 .048
 -1 550705865389463e-30 0 16 694 2778 0 ?692 693 687 689 0 0 10 30 695 2789 0 69
3 689 691 0 +.0176569656770559 -.017 .046 0 -1 0 16 693 2787 0 ?74 698 694 695 0
 0 10 30 691 2798 0 698 695 700 0 +.0113569656770559 -.017 .046 -1 0 0 16 698 27
96 0 ?69 696 693 691 0 0 10 30 700 2803 0 696 691 699 0 +.0113569656770559 -.015
 .046 4336808689942015e-31 1 0 16 696 2801 0 ?87 697 698 700 0 0 10 30 699 2816
 0 697 700 701 0 +-.0176569656770559 -.015 .046 0 1 0 16 697 2814 0 ?705 703 696
 699 0 0 10 30 701 2825 0 703 699 702 0 +-.0176569656770559 -.0137279404685324 .
048 -1 0 0 16 703 2823 0 ?59 704 697 701 0 0 10 30 702 2829 0 704 701 706 0 +-.0
120849061455883 -.013 .048 0 1 0 16 704 2827 0 ?61 710 703 702 0 0 10 30 706 283
3 0 710 702 708 0 +0 -.0162720595314676 .048 1 0 0 16 710 2831 0 ?54 707 704 706
 0 0 10 30 708 2836 0 707 706 709 0 +-.0169290252085235 -.0115 .048 0 -1 0 16 70
7 2834 0 ?711 715 710 708 0 0 10 30 709 2845 0 715 708 712 0 +-.0145069656770559
 -.017 .046 -1 0 0 16 715 2843 0 ?63 38 707 709 0 0 10 30 712 2854 0 38 709 40 0
 +-.0113569656770559 -.017 .046 0 -1 0 16 38 2852 0 ?42 21 715 712 0 0 10 30 40
 2859 0 21 712 713 0 +-.0113569656770559 -.013 .046 1 0 0 30 713 2920 0 714 40 7
17 0 +.0171623508229959 -.01349461485406002 .0473589431428568 .323615577118184 .
3236155771181845 -.889126490715989 16 714 2900 0 ?93 720 34 713 0 0 10 30 717 29
19 0 720 713 719 0 -.01156641976056296 -.01320945408350708 .0465754703648482 -.3
23615577118184 .3236155771181845 -.889126490715989 16 720 2898 0 ?84 356 714 717
 0 0 10 30 719 2918 0 356 717 360 0 -.0151560984786638 -.0144991328016079 .05287
1076156637 -.323615577118184 .3236155771181855 .889126490715988 16 356 2895 0 ?7
16 352 720 719 0 0 10 30 360 2917 0 352 719 718 0 -.01156641976056296 -.01679054
591649295 .0465754703648482 -.323615577118184 -.3236155771181855 -.8891264907159
88 30 718 2977 0 721 360 722 0 +-.0151560984786638 -.0155008671983921 .052871076
156637 -.323615577118184 .323615577118184 -.889126490715989 16 721 2957 0 ?70 72
4 0 718 0 0 10 30 722 2976 0 724 718 35 0 --.01732707549553225 -.016670109818476
35 .046906365824636 -.323615577118184 -.323615577118184 -.889126490715989 16 724
 2955 0 ?49 723 721 722 0 0 10 30 35 2975 0 723 722 18 0 +-.01081928967509172 -.
01246232399803582 .0445227473256208 .323615577118184 .323615577118184 -.88912649
0715989 16 723 2952 0 ?725 34 724 35 0 0 10 17 725 0 726 45 730 22 728 723 0 0 +
16 34 2949 0 ?727 714 723 18 0 0 10 17 727 0 729 732 735 51 734 34 0 0 +15 729 2
939 0 727 731 0 17 732 0 729 733 727 44 54 710 0 711 -17 735 0 729 727 733 36 63
 715 0 0 -17 734 0 736 48 740 36 727 34 0 735 -15 736 2937 0 728 26 0 17 48 0 73
6 728 734 22 42 38 0 725 -17 740 0 736 734 728 51 61 704 0 727 -17 728 0 736 740
 48 56 725 723 0 730 -17 61 0 737 59 54 56 740 704 0 728 +15 737 2820 0 59 738 0
 17 59 0 737 711 61 57 730 703 0 739 +17 54 0 737 61 711 51 732 710 0 740 +17 71
1 0 737 54 59 44 739 707 0 0 +17 739 0 741 70 49 57 711 707 0 745 -15 741 2943 0
 49 743 0 17 70 0 741 742 739 65 745 721 0 45 +17 49 0 741 739 742 44 733 724 0
 732 +17 745 0 726 730 45 57 70 721 0 0 -15 726 2941 0 725 744 0 17 730 0 726 72
5 745 56 59 703 0 0 -17 45 0 726 745 725 65 31 21 0 705 -17 705 0 749 270 750 65
 742 697 0 41 +15 749 411 0 750 747 0 17 270 0 749 520 705 264 41 492 0 415 +17
 750 0 749 705 520 62 229 491 0 733 -17 742 0 741 49 70 62 705 697 0 0 -17 41 0
 39 31 415 65 270 492 0 0 -15 39 407 0 41 748 0 17 415 0 39 41 391 264 273 405 0
 746 +17 391 0 39 415 282 240 753 386 0 0 +17 273 0 755 402 746 240 415 405 0 75
1 -17 746 0 755 273 271 264 409 394 0 754 -15 755 1266 0 746 752 0 17 271 0 755
 746 402 267 280 413 0 407 +17 409 0 756 760 754 267 746 394 0 0 +17 754 0 756 4
09 758 264 520 513 0 0 -15 756 1058 0 757 759 761 17 758 0 756 754 519 226 523 5
21 0 520 -17 520 0 749 750 270 226 754 513 0 0 +17 519 0 756 758 757 217 765 517
 0 523 +17 523 0 763 47 229 217 758 521 0 0 +15 763 399 0 47 762 0 17 47 0 763 6
3 523 36 50 499 0 734 -17 229 0 763 523 63 226 750 491 0 758 +17 63 0 763 229 47
 62 735 715 0 750 +17 50 0 46 765 42 217 47 499 0 519 +15 46 403 0 43 764 0 17 7
65 0 46 43 50 258 519 517 0 0 -17 43 0 46 42 765 22 37 497 0 48 -17 37 0 39 282
 31 258 43 497 0 416 +17 282 0 39 391 37 268 416 417 0 766 -17 416 0 770 211 766
 258 282 417 0 757 +15 770 1258 0 211 767 0 17 211 0 770 278 416 207 757 404 0 4
20 +17 766 0 770 416 278 268 395 392 0 753 -17 757 0 756 519 760 258 211 404 0 7
65 -17 760 0 756 757 409 207 407 403 0 0 -17 407 0 768 280 420 267 760 403 0 409
 +15 768 1262 0 407 769 0 17 280 0 768 772 407 274 271 413 0 398 -17 420 0 768 4
07 772 207 278 414 0 760 +17 772 0 768 420 280 279 398 396 0 0 -17 278 0 770 766
 211 279 420 414 0 395 -17 395 0 775 398 753 279 766 392 0 772 +15 775 1270 0 75
3 774 0 17 398 0 775 751 395 274 772 396 0 402 +17 753 0 775 395 751 268 391 386
 0 0 -17 751 0 775 753 398 240 402 397 0 391 -17 402 0 755 271 273 274 751 397 0
 0 +14 255 774 1267 0 ?771 752 775 16 773 +0 0 771 752 33 14 771 1166 0 ?776 774
 777 16 779 +0 0 776 774 33 14 752 1263 0 ?774 769 755 16 778 +0 0 774 769 33 50
 773 1389 0 774 780 778 0 +3469446951953615e-33 0 .0237 0 0 1 1 0 0 13 33 49 0 0
 0 0 0 0 20 27 14 27 2300 0 ?759 0 781 16 785 -783 783 759 0 33 14 759 1 0 ?782
 27 756 16 784 +0 0 782 27 33 15 781 1063 0 181 27 787 50 785 130 0 27 790 789 0
 +-3469446951953615e-33 -.023 .03 0 1 0 0 0 1 14 783 124 0 ?786 346 788 16 785 -
27 27 786 346 33 14 786 2879 0 ?791 783 795 16 792 +0 0 791 783 33 14 346 2544 0
 ?783 793 343 16 794 +0 0 783 793 33 15 788 2277 0 796 783 0 17 796 0 788 800 67
0 300 283 671 0 0 -17 800 0 788 667 796 92 298 654 0 0 -17 670 0 788 796 667 255
 290 669 0 0 +17 283 0 798 313 374 255 796 671 0 382 +15 798 2483 0 283 797 0 17
 313 0 798 362 283 308 382 381 0 799 -17 374 0 798 283 362 300 305 336 0 796 +17
 382 0 804 290 799 255 313 381 0 670 +15 804 2487 0 307 805 0 17 290 0 804 307 3
82 285 670 669 0 379 -17 799 0 804 382 307 308 368 363 0 802 -17 307 0 804 799 2
90 309 379 378 0 368 -17 368 0 348 369 802 309 799 363 0 803 +17 802 0 348 368 8
01 308 362 364 0 0 -15 348 2548 0 802 346 0 17 801 0 348 802 369 299 375 367 0 3
62 -17 362 0 798 374 313 299 802 364 0 0 +17 369 0 348 801 368 303 803 370 0 375
 +17 375 0 808 100 305 303 801 367 0 0 +15 808 2511 0 298 793 0 17 100 0 808 298
 375 92 304 376 0 810 +17 305 0 808 375 298 299 374 336 0 801 -17 298 0 808 305
 100 300 800 654 0 374 +17 304 0 806 803 810 303 100 376 0 369 -17 810 0 806 304
 379 92 667 663 0 800 -15 806 2491 0 304 809 0 17 379 0 806 810 803 285 307 378
 0 667 +17 667 0 788 670 800 285 810 663 0 0 +17 803 0 806 379 304 309 369 370 0
 0 -14 809 2520 0 ?327 805 806 16 807 -0 0 327 805 33 14 327 2524 0 ?341 809 323
 16 780 +0 0 341 809 33 14 805 2516 0 ?809 797 804 16 811 -0 0 809 797 33 50 807
 2562 0 809 815 811 0 +.003496785182505845 -.015 .01333604659885168 -1 0 0 0 0 1
 50 815 2563 0 793 794 807 0 +-.000159824215498812 -.015 .01303052250295878 0 0
 -1 -1 0 0 50 811 2561 0 805 807 813 0 +-.000159824215498812 -.015 .013641570694
7446 0 0 -1 -1 0 0 50 813 2560 0 797 811 812 0 +-.00381643361350347 -.015 .01333
604659885168 -1 0 0 0 0 1 14 797 2512 0 ?805 814 798 16 813 +0 0 805 814 33 50 8
12 2559 0 816 813 820 0 +-.0001605842087104895 -.015 .01484075511991976 0 0 1 1
 0 0 14 816 2536 0 ?793 818 817 16 812 -0 0 793 818 33 51 255 820 2558 0 818 812
 819 0 +.00349526519608249 -.015 .01334075511991976 0 -1 0 .0015 0 0 -1 14 818 2
532 0 ?816 341 821 16 820 -0 0 816 341 33 50 819 2557 0 341 820 780 0 +-.0001605
842087104895 -.015 .01184075511991976 0 0 1 1 0 0 14 341 2528 0 ?818 327 331 16
 819 +0 0 818 327 33 51 780 2556 0 327 819 773 0 --.00381643361350347 -.015 .013
34075511991976 0 -1 0 .0015 0 0 -1 15 821 2503 0 320 818 0 17 320 0 821 344 825
 312 94 387 0 342 -17 344 0 821 345 320 318 342 347 0 0 -17 825 0 821 320 345 95
 679 677 0 674 -17 94 0 817 296 351 95 320 387 0 825 +17 342 0 343 349 338 312 3
44 347 0 351 +17 351 0 817 94 314 312 349 355 0 0 -15 817 2507 0 314 816 0 17 31
4 0 817 351 296 315 328 373 0 349 -17 296 0 817 314 94 291 674 673 0 328 -17 328
 0 323 289 322 291 314 373 0 335 +17 335 0 787 674 333 291 289 334 0 0 -15 787 2
298 0 335 27 0 17 674 0 787 679 335 95 296 673 0 0 +17 333 0 787 335 679 288 294
 676 0 0 -17 679 0 787 333 674 292 825 677 0 0 +17 294 0 331 319 324 292 333 676
 0 345 +17 345 0 821 825 344 292 319 337 0 679 +14 793 2540 0 ?346 816 808 16 81
5 +0 0 346 816 33 14 814 2169 0 ?797 822 823 16 824 +0 0 797 822 33 14 822 2167
 0 ?814 827 830 16 829 +0 0 814 827 33 15 823 2170 0 106 814 0 51 824 2196 0 814
 826 829 0 +433680868994202e-32 .0151 .0511 1 0 0 .0019 0 0 -1 51 826 1888 0 828
 831 824 0 +.02015441558772845 -.01865441558772845 .03 0 0 1 .004345584412271575
 1 0 0 51 829 2195 0 822 824 832 0 +-999999999999974e-19 .01385 .0511 -206514699
5210485e-31 1 0 .0019 -1 -2065146995210485e-31 0 51 832 2194 0 827 829 834 0 +.0
001000000000000026 .01385 .0511 2065146995210485e-31 -1 0 .0019 1 20651469952104
85e-31 0 14 827 2165 0 ?822 833 835 16 832 +0 0 822 833 33 51 834 2193 0 833 832
 836 0 +3252606517456515e-33 .0126 .0511 -1 0 0 .0019 0 0 1 14 833 2163 0 ?827 8
40 838 16 834 +0 0 827 840 33 50 836 2915 837 839 834 842 0 -.0145069656770559 -
.013 .046 -517494237929996e-30 -.939692620785908 -.3420201433256685 1 -550705865
389463e-30 0 81 2 837 2916 845 836 0 0 844 29 841 843 14 839 2885 0 ?26 846 850
 16 836 +0 0 26 846 33 50 842 2913 844 846 836 847 0 +.0169290252085235 -.0115 .
048 .939692620785909 0 .342020143325668 0 -1 0 81 2 844 2914 845 842 0 0 848 837
 849 851 14 846 2883 0 ?839 791 855 16 842 +0 0 839 791 33 50 847 2911 848 791 8
42 792 0 -.0113569656770559 -.015 .046 .939692620785909 -4075267123698715e-31 -.
342020143325668 4336808689942015e-31 1 0 81 2 848 2912 845 847 0 0 853 844 852 8
54 14 791 2881 0 ?846 786 859 16 847 +0 0 846 786 33 50 792 2909 853 786 847 860
 0 +0 -.0162720595314676 .048 0 -.939692620785908 .3420201433256695 -1 0 0 81 2
 853 2910 845 792 0 0 0 848 857 858 50 860 2972 856 743 792 863 0 --.01765696567
70559 -.015 .046 .939692620785909 0 -.342020143325668 0 1 0 81 2 856 2973 845 86
0 0 0 865 0 861 864 14 743 2942 0 ?0 744 741 16 860 +0 0 0 744 33 50 863 2970 86
5 744 860 28 0 +0 -.0137279404685324 .048 0 .939692620785909 .342020143325668 1
 0 0 81 2 865 2971 845 863 0 0 862 856 866 870 14 744 2940 0 ?743 731 726 16 863
 +0 0 743 731 33 50 28 2968 862 731 863 17 0 --.0145069656770559 -.017 .046 0 .9
39692620785909 -.342020143325668 -1 0 0 81 2 862 2969 845 28 0 0 29 865 868 867
 14 731 2938 0 ?744 26 729 16 28 +0 0 744 26 33 14 26 2936 0 ?731 839 736 16 17
 +0 0 731 839 33 80 7 CCCCCDI12 legal_owners0 17 1 lCZ2 845 869 871 8044 0 0 0 0
 3 5 0 0 0 FFFFTFFFTTFFFFFFF3 2 81 2 29 2967 845 17 0 0 837 862 875 873 84 255 6
 868 BAMAAB83 255 4 867 0 .002128355544951825 .002 .939692620785908 84 6 875 BAN
AAB83 4 873 0 .002128355544951825 .002 .939692620785908 79 255 17 871 SDL/TYSA_B
LEND_ID84 6 866 BANAAB83 4 870 0 .002128355544951825 .002 .939692620785908 84 6
 861 BAMAAB83 4 864 0 .002128355544951825 .002 .939692620785908 84 6 857 BANAAB8
3 4 858 0 .002128355544951825 .002 .939692620785908 15 859 2882 0 354 791 0 17 3
54 0 859 872 874 79 876 352 0 0 +17 872 0 859 880 354 83 85 684 0 692 -17 874 0
 859 354 880 68 87 696 0 0 -17 876 0 795 877 878 68 354 352 0 874 -15 795 2880 0
 879 786 0 17 877 0 795 879 876 72 69 698 0 716 -17 878 0 795 876 879 79 78 690
 0 354 -17 879 0 795 878 877 80 716 356 0 882 -17 78 0 885 76 85 80 878 690 0 87
9 +15 885 2764 0 76 884 0 17 76 0 885 692 78 71 882 687 0 881 +17 85 0 885 78 69
2 79 872 684 0 878 +17 692 0 885 85 76 83 881 694 0 0 +17 881 0 850 93 84 71 692
 694 0 883 -15 850 2886 0 84 839 0 17 93 0 850 886 881 88 883 714 0 887 +17 84 0
 850 881 886 83 880 720 0 872 +17 883 0 855 882 887 71 93 714 0 0 -15 855 2884 0
 716 846 0 17 882 0 855 716 883 80 76 687 0 0 -17 887 0 855 883 716 88 74 693 0
 683 -17 716 0 855 887 882 72 879 356 0 0 +17 74 0 889 223 888 72 887 693 0 890
 +17 683 0 891 248 895 88 886 685 0 888 +15 891 540 0 895 893 0 17 248 0 891 265
 683 246 888 502 0 450 +17 895 0 891 683 455 89 254 489 0 880 -17 886 0 850 84 9
3 89 683 685 0 0 -17 888 0 889 74 892 88 248 502 0 0 -15 889 536 0 888 894 0 17
 892 0 889 888 223 246 508 498 0 0 -17 223 0 889 892 74 224 890 503 0 508 +17 50
8 0 897 512 900 224 892 498 0 899 +15 897 236 0 896 759 0 17 512 0 897 896 508 2
19 899 507 0 511 +17 900 0 897 508 444 246 208 438 0 892 -17 899 0 898 890 225 2
24 512 507 0 0 -15 898 532 0 890 901 0 17 890 0 898 69 899 72 223 503 0 877 -17
 225 0 898 899 69 219 905 493 0 512 +17 69 0 898 225 890 68 877 698 0 905 +17 90
5 0 902 87 511 68 225 493 0 876 -15 902 528 0 905 903 0 17 87 0 902 254 905 89 8
74 696 0 895 +17 511 0 902 905 254 219 896 515 0 0 +17 254 0 902 511 87 247 895
 489 0 455 +17 896 0 897 437 512 247 511 515 0 0 -17 437 0 897 444 896 245 904 4
36 0 0 +17 444 0 897 900 437 206 906 426 0 0 +17 904 0 777 262 243 247 437 436 0
 896 -15 777 1169 0 904 771 0 17 262 0 777 424 904 244 455 406 0 910 -17 243 0 7
77 904 424 245 251 434 0 906 +17 424 0 777 243 262 252 908 425 0 0 +17 251 0 907
 432 906 252 243 434 0 909 -17 906 0 907 251 447 245 444 426 0 437 -15 907 1181
 0 906 914 0 17 447 0 907 906 432 206 259 443 0 444 +17 432 0 907 447 251 260 90
9 435 0 0 +17 259 0 915 912 208 260 447 443 0 431 -15 915 1177 0 208 776 0 17 91
2 0 915 450 259 257 431 427 0 0 -17 208 0 915 259 450 206 900 438 0 447 +17 431
 0 913 909 428 260 912 427 0 432 +15 913 1185 0 908 911 0 17 909 0 913 908 431 2
52 432 435 0 424 -17 428 0 913 431 908 257 910 422 0 912 +17 908 0 913 428 909 2
44 424 425 0 0 -17 910 0 891 455 265 244 428 422 0 908 -17 455 0 891 895 910 247
 262 406 0 904 +17 265 0 891 910 248 257 450 449 0 428 -17 450 0 915 208 912 246
 265 449 0 900 +14 911 1182 0 ?918 914 913 16 920 +0 0 918 914 33 14 918 1346 0
 ?916 911 919 16 917 -0 0 916 911 33 14 914 1178 0 ?911 776 907 16 921 +0 0 911
 776 33 50 920 1383 0 911 925 921 0 +3469446951953615e-33 0 .0237 0 0 1 1 0 0 50
 925 1385 0 767 923 920 0 +-.0113569656770559 .001 .0237 1 0 0 0 0 -1 50 921 138
1 0 914 920 922 0 +.0145069656770559 .015 .0237 -550705865389462e-30 -1 0 1 -550
705865389462e-30 0 50 922 1380 0 776 921 779 0 +.0176569656770559 .001 .0237 1 -
247817639425258e-30 0 247817639425258e-30 1 0 14 776 1174 0 ?914 771 915 16 922
 -0 0 914 771 33 50 779 1378 0 771 922 924 0 +.0113569656770559 .001 .0237 1 -37
1726459137887e-30 0 371726459137887e-30 1 0 50 924 1377 0 926 779 930 0 +3469446
951953615e-33 0 .0237 0 0 1 1 0 0 14 926 1358 0 ?928 916 927 16 924 +0 0 928 916
 33 50 930 1375 0 916 924 917 0 +.002 -.00615 .0237 -1 -514754740645937e-31 0 51
4754740645937e-31 -1 0 14 916 1354 0 ?926 918 929 16 930 +0 0 926 918 33 50 917
 1373 0 918 930 931 0 +-.002 -.00615 .0237 -1 0 0 0 0 1 50 931 908 0 935 917 932
 0 +433680868994202e-32 .01385 .053 0 0 1 1 0 0 14 935 893 0 ?767 933 934 16 931
 +0 0 767 933 33 50 932 906 0 933 931 937 0 +-.002 .01385 .053 -1 -2065146995210
485e-31 0 2065146995210485e-31 -1 0 14 933 889 0 ?935 940 939 16 932 +0 0 935 94
0 33 50 937 905 0 940 932 936 0 +780625564189563e-32 .017 .053 0 -1 0 0 0 -1 14
 940 885 0 ?933 938 941 16 937 -0 0 933 938 33 50 936 904 0 938 937 942 0 +.002
 .01385 .053 -1 -2065146995210485e-31 0 2065146995210485e-31 -1 0 14 938 881 0 ?
940 944 943 16 936 -0 0 940 944 33 50 942 903 0 944 936 945 0 +3252606517456515e
-33 .0107 .053 0 -1 0 0 0 -1 14 944 877 0 ?938 738 946 16 942 +0 0 938 738 33 50
 945 564 0 738 942 950 0 +0 -.0115 .048 0 0 1 1 0 0 14 738 412 0 ?944 747 737 16
 945 +0 0 944 747 33 50 950 562 0 747 945 948 0 +-.0176569656770559 -.015 .048 -
1 0 0 0 0 1 14 747 408 0 ?738 748 749 16 950 +0 0 738 748 33 50 948 561 0 748 95
0 947 0 +-.0145069656770559 -.013 .048 0 -1 0 0 0 -1 14 748 404 0 ?747 764 39 16
 948 -0 0 747 764 33 50 947 560 0 764 948 949 0 +-.0113569656770559 -.015 .048 -
1 0 0 0 0 1 14 764 400 0 ?748 762 46 16 947 -0 0 748 762 33 50 949 559 0 762 947
 952 0 +-.0145069656770559 -.017 .048 0 -1 0 0 0 -1 14 762 396 0 ?764 884 763 16
 949 +0 0 764 884 33 50 952 558 0 884 949 955 0 +0 -.0115 .048 0 0 1 1 0 0 14 88
4 541 0 ?762 893 885 16 952 +0 0 762 893 33 50 955 556 0 893 952 954 0 +.0145069
656770559 -.013 .048 550705865389463e-30 1 0 -1 550705865389463e-30 0 14 893 537
 0 ?884 894 891 16 955 +0 0 884 894 33 50 954 555 0 894 955 951 0 +.017656965677
0559 -.015 .048 -1 0 0 0 0 1 14 894 533 0 ?893 901 889 16 954 -0 0 893 901 33 50
 951 554 0 901 954 953 0 +.0145069656770559 -.017 .048 0 1 0 0 0 1 14 901 529 0
 ?894 903 898 16 951 -0 0 894 903 33 50 953 553 0 903 951 784 0 +.01135696567705
59 -.015 .048 -1 4336808689942015e-31 0 -4336808689942015e-31 -1 0 14 903 525 0
 ?901 956 902 16 953 +0 0 901 956 33 50 784 3 0 759 953 960 0 +0 0 .03 0 0 1 1 0
 0 50 960 108 0 956 784 790 0 +0 0 0 0 0 1 1 0 0 14 956 68 0 ?903 957 958 16 960
 -0 0 903 957 33 50 790 129 0 957 960 785 0 +.0245 0 .03 1 -150845519650157e-30
 0 150845519650157e-30 1 0 14 957 122 0 ?956 959 961 16 790 +0 0 956 959 33 14 9
59 126 0 ?957 782 965 16 789 -0 0 957 782 33 15 961 121 0 136 957 0 17 136 0 961
 175 137 133 963 584 0 962 +17 175 0 961 536 136 174 962 581 0 964 +17 137 0 961
 136 536 140 969 582 0 970 +17 963 0 967 635 968 140 136 584 0 0 -17 962 0 966 9
73 975 133 175 581 0 968 -15 966 1821 0 975 971 0 17 973 0 966 974 962 142 619 6
18 0 972 -17 975 0 966 962 974 174 167 551 0 0 -17 968 0 967 963 976 133 624 622
 0 619 -15 967 1819 0 635 980 0 17 976 0 967 968 635 129 593 591 0 624 -17 624 0
 978 972 619 129 968 622 0 613 +17 619 0 978 624 972 133 973 618 0 0 +15 978 182
5 0 619 977 0 17 972 0 978 619 624 142 613 612 0 979 -17 613 0 981 985 979 129 9
72 612 0 0 +17 979 0 981 613 983 142 145 574 0 0 -15 981 1829 0 613 982 0 17 983
 0 981 979 985 139 609 604 0 984 -17 145 0 986 166 141 139 979 574 0 983 +15 986
 127 0 145 782 0 17 166 0 986 529 145 170 984 577 0 990 +17 141 0 986 145 529 14
2 974 580 0 973 +17 529 0 986 141 166 163 990 522 0 974 +17 974 0 966 975 973 16
3 141 580 0 0 -17 990 0 761 162 167 170 529 522 0 987 -15 761 1053 0 988 759 897
 17 162 0 761 528 990 161 987 556 0 989 +17 167 0 761 990 964 163 975 551 0 529
 +17 987 0 992 984 995 170 162 556 0 0 -15 992 1833 0 987 840 0 17 984 0 992 151
 987 139 166 577 0 994 -17 995 0 992 987 151 161 573 575 0 0 -17 151 0 992 995 9
84 149 994 602 0 611 +17 573 0 965 146 989 149 995 575 0 0 +15 965 1690 0 989 95
9 0 17 146 0 965 159 573 148 991 569 0 993 +17 989 0 965 573 159 161 528 530 0 9
95 -17 159 0 965 989 146 158 993 568 0 528 +17 528 0 761 202 162 158 989 530 0 9
96 +17 202 0 761 988 528 201 996 549 0 997 +17 996 0 999 993 998 158 202 549 0 0
 -15 999 1815 0 996 1000 0 17 993 0 999 1001 996 148 159 568 0 628 -17 998 0 999
 996 1001 201 193 537 0 0 -17 1001 0 999 998 993 191 628 630 0 626 -17 193 0 781
 189 997 191 998 537 0 1005 +17 189 0 781 199 193 187 1005 540 0 1003 +17 997 0
 781 193 548 201 988 531 0 998 -17 1005 0 1002 1004 634 191 189 540 0 1001 -15 1
002 1817 0 634 1007 0 17 1004 0 1002 122 1005 124 626 621 0 1010 -17 634 0 1002
 1005 122 187 1009 633 0 0 +17 122 0 1002 634 1004 125 130 592 0 1009 -17 1009 0
 1006 1008 640 125 634 633 0 635 -15 1006 1813 0 1008 1011 0 17 1008 0 1006 640
 1009 140 635 629 0 963 -17 640 0 1006 1009 1008 187 970 599 0 634 +17 635 0 967
 976 963 125 1008 629 0 593 +17 593 0 958 130 128 125 976 591 0 0 +15 958 1732 0
 593 956 0 17 130 0 958 132 593 124 122 592 0 1004 +17 128 0 958 593 132 129 985
 590 0 976 +17 132 0 958 128 130 131 1015 589 0 985 +17 985 0 981 983 613 131 12
8 590 0 1012 -17 1012 0 1013 1015 991 131 611 606 0 609 -15 1013 1827 0 620 1014
 0 17 1015 0 1013 620 1012 124 132 589 0 0 -17 991 0 1013 1012 620 149 146 569 0
 573 -17 611 0 1016 994 609 149 1012 606 0 991 +17 609 0 1016 611 994 131 983 60
4 0 0 +15 1016 1831 0 609 1020 0 17 994 0 1016 609 611 139 151 602 0 0 -14 1020
 1830 0 ?840 982 1016 16 1018 +0 0 840 982 33 14 840 1832 0 ?833 1020 992 16 101
7 +0 0 833 1020 33 14 982 1828 0 ?1020 1014 981 16 1019 +0 0 1020 1014 33 53 255
 1018 1898 0 1020 1017 1019 0 +-.02015441558772845 .01865441558772845 .004345584
412271575 .004345584412271575 0 0 -1 -1 0 0 51 1017 1899 0 840 1024 1018 0 +-.02
015441558772845 .01865441558772845 .03 0 0 1 .004345584412271575 1 0 0 51 1019 1
897 0 982 1018 1025 0 +0 .01865441558772845 .004345584412271575 -1 0 0 .00434558
4412271575 0 0 1 51 1025 1896 0 1014 1019 1022 0 +-.02015441558772845 -655511938
852728e-33 .00434558441227157 -150845519650157e-30 -1 0 .004345584412271575 1 -1
50845519650157e-30 0 14 1014 1826 0 ?982 977 1013 16 1025 +0 0 982 977 33 53 102
2 1895 0 977 1025 1023 0 +.02015441558772845 .01865441558772845 .004345584412271
575 .004345584412271575 1 0 0 0 0 -1 14 977 1824 0 ?1014 1021 978 16 1022 +0 0 1
014 1021 33 53 1023 1894 0 1021 1022 1028 0 +-.02015441558772845 -.0186544155877
2845 .004345584412271575 .004345584412271575 0 -1 -399192217064773e-30 0 3991922
17064773e-30 -1 14 1021 1822 0 ?977 971 1030 16 1023 +0 0 977 971 33 51 1028 189
3 0 971 1023 1026 0 +.02015441558772845 .01865441558772845 .03 0 0 -1 .004345584
412271575 -1 0 0 14 971 1820 0 ?1021 980 966 16 1028 +0 0 1021 980 33 51 1026 18
92 0 980 1028 1029 0 +.02015441558772845 -3040203292576125e-33 .0043455844122715
75 150845519650157e-30 1 0 .004345584412271575 -1 150845519650157e-30 0 14 980 1
818 0 ?971 1007 967 16 1026 +0 0 971 1007 33 51 1029 1891 0 1007 1026 1027 0 +-3
469446951953615e-33 -.01865441558772845 .00434558441227157 1 0 0 .00434558441227
1575 0 0 -1 14 1007 1816 0 ?980 1000 1002 16 1029 +0 0 980 1000 33 51 1027 1890
 0 1000 1029 831 0 +-.02015441558772845 -.01865441558772845 .03 0 0 -1 .00434558
4412271575 -1 0 0 14 1000 1814 0 ?1007 1011 999 16 1027 +0 0 1007 1011 33 53 831
 1889 0 1011 1027 826 0 +.02015441558772845 -.01865441558772845 .004345584412271
575 .004345584412271575 0 -1 -399192217064773e-30 0 399192217064773e-30 -1 14 10
11 1812 0 ?1000 828 1006 16 831 +0 0 1000 828 33 14 828 1810 0 ?1011 1031 1035 1
6 826 +0 0 1011 1031 33 14 1031 1769 0 ?828 1033 1032 16 1034 +0 0 828 1033 33 1
5 1035 1811 0 970 828 0 17 970 0 1035 969 1003 140 640 599 0 1008 -17 969 0 1035
 1036 970 168 137 582 0 0 -17 1003 0 1035 970 1036 187 199 541 0 640 -17 1036 0
 1035 1003 969 192 172 555 0 0 -17 199 0 781 1040 189 192 1003 541 0 535 +17 104
0 0 781 190 199 200 535 526 0 1038 -17 535 0 761 172 198 192 1040 526 0 1036 +17
 172 0 761 964 535 168 1036 555 0 536 +17 198 0 761 535 470 200 1037 559 0 1040
 +17 470 0 761 198 487 176 1039 460 0 1037 +17 1037 0 1041 1045 1038 176 198 559
 0 0 -15 1041 1766 0 1037 928 0 17 1045 0 1041 1042 1037 155 178 567 0 605 -17 1
038 0 1041 1037 1042 200 190 543 0 0 -17 1042 0 1041 1038 1045 183 605 439 0 104
3 -17 190 0 781 181 1040 183 1038 543 0 1042 +17 181 0 781 548 190 185 1043 544
 0 1044 +17 548 0 781 997 181 196 1047 550 0 988 +17 1043 0 1050 605 1044 183 18
1 544 0 0 -17 1044 0 1050 1043 1049 185 597 600 0 1047 -15 1050 1768 0 605 1033
 0 17 1049 0 1050 1044 605 154 152 562 0 597 -17 597 0 1032 1046 1047 154 1044 6
00 0 0 +17 1047 0 1032 597 205 185 548 550 0 0 -15 1032 1770 0 597 1031 0 17 205
 0 1032 1047 1046 196 182 560 0 548 -17 1046 0 1032 205 597 177 160 565 0 0 -17
 182 0 761 1048 988 177 205 560 0 464 +17 1048 0 761 1051 182 232 464 423 0 483
 -17 988 0 761 182 202 196 997 531 0 0 +17 464 0 919 160 475 177 1048 423 0 1046
 +15 919 1349 0 464 918 0 17 160 0 919 1052 464 154 1046 565 0 456 +17 475 0 919
 464 1052 232 241 469 0 1048 +17 1052 0 919 475 160 233 456 457 0 1054 -17 241 0
 946 454 237 233 475 469 0 1052 -15 946 880 0 1053 944 0 17 454 0 946 467 241 22
8 1054 453 0 0 +17 237 0 946 241 103 232 1055 472 0 475 +17 103 0 946 237 1053 1
01 1056 647 0 1055 +17 1055 0 939 108 483 101 237 472 0 1060 -15 939 892 0 1055
 933 0 17 108 0 939 220 1055 110 1058 653 0 1057 +17 483 0 939 1055 220 232 1051
 481 0 0 +17 1060 0 838 1056 1059 101 662 658 0 1058 -15 838 2164 0 1060 833 0 1
7 1056 0 838 1062 1060 98 103 647 0 664 -17 1059 0 838 1060 1062 116 113 638 0 6
62 -17 662 0 830 1065 1058 116 1060 658 0 0 +17 1058 0 830 662 1064 101 108 653
 0 0 -15 830 2168 0 662 822 0 17 1064 0 830 1058 1065 110 121 383 0 0 -17 1065 0
 830 1064 662 118 119 596 0 641 -17 121 0 823 1061 1063 118 1064 383 0 1065 +17
 1061 0 823 106 121 109 641 643 0 0 -17 1063 0 823 121 106 110 648 646 0 1064 -1
7 106 0 823 1063 1061 102 1066 660 0 1070 +17 648 0 941 212 1057 102 1063 646 0
 1067 +15 941 888 0 1057 940 0 17 212 0 941 1068 648 215 1067 480 0 486 +17 1057
 0 941 648 1068 110 220 471 0 1063 -17 1067 0 943 99 1069 102 212 480 0 0 -15 94
3 884 0 1067 938 0 17 99 0 943 235 1067 98 1070 651 0 1053 +17 1069 0 943 1067 2
35 215 487 490 0 0 -17 235 0 943 1069 99 230 1053 479 0 467 +17 487 0 761 470 48
6 230 1069 490 0 0 +17 486 0 761 487 1051 215 1068 482 0 1069 +17 1051 0 761 486
 1048 214 483 481 0 1068 -17 1068 0 941 1057 212 214 486 482 0 0 -17 1053 0 946
 103 467 98 235 479 0 1056 -17 467 0 946 1053 454 230 236 462 0 1039 +17 236 0 9
29 465 1039 228 467 462 0 1071 -17 1039 0 929 236 178 230 470 460 0 487 -15 929
 1357 0 465 916 0 17 178 0 929 1039 465 176 1045 567 0 470 +17 465 0 929 178 236
 155 1071 458 0 1045 +17 1071 0 927 1054 152 228 465 458 0 454 -15 927 1361 0 45
6 926 0 17 1054 0 927 456 1071 233 454 453 0 0 -17 152 0 927 1071 456 155 1049 5
62 0 465 +17 456 0 927 152 1054 154 1052 457 0 1049 +17 1070 0 835 1066 664 102
 99 651 0 648 -15 835 2166 0 664 827 0 17 1066 0 835 1075 1070 109 106 660 0 106
1 -17 664 0 835 1070 1075 98 1062 607 0 0 +17 1075 0 835 664 1066 114 115 644 0
 0 -17 1062 0 838 1059 1056 114 664 607 0 1075 -17 115 0 934 641 113 109 1075 64
4 0 1066 +15 934 2099 0 113 935 0 17 641 0 934 119 115 118 1061 643 0 0 +17 113
 0 934 115 119 114 1059 638 0 1062 +17 119 0 934 113 641 116 1065 596 0 1059 +17
 220 0 939 483 108 214 1057 471 0 1051 +16 531 1562 0 ?988 534 526 527 526 526 1
0 17 605 0 1050 1049 1043 155 1042 439 0 0 +14 1033 1767 0 ?1031 928 1050 16 107
3 +0 0 1031 928 33 14 928 1765 0 ?1033 926 1041 16 1024 +0 0 1033 926 33 51 1073
 1792 0 1033 1034 1024 0 +3469446951953615e-33 -.01865441558772845 .019354415587
72845 -1 0 0 .004345584412271575 0 0 1 51 1034 1793 0 1031 1072 1073 0 +-.006345
58441227157 -.01865441558772845 .03 0 0 1 .004345584412271575 1 0 0 51 1024 1791
 0 928 1073 1017 0 +.00634558441227158 -.01865441558772845 .0237 0 0 -1 .0043455
84412271575 -1 0 0 50 1072 132 0 782 789 1034 0 +3469446951953615e-33 .023 .03 0
 1 0 0 0 1 14 782 128 0 ?959 759 986 16 1072 +0 0 959 759 33 50 789 131 0 959 78
5 1072 0 +-.0245 0 .03 1 -150845519650157e-30 0 150845519650157e-30 1 0 17 964 0
 761 167 172 174 536 534 0 975 -17 536 0 961 137 175 168 964 534 0 969 +15 1030
 1823 0 626 1021 0 17 626 0 1030 628 1010 191 1004 621 0 0 +17 628 0 1030 1010 6
26 148 1001 630 0 620 +17 1010 0 1030 626 628 124 620 615 0 1015 -17 620 0 1013
 991 1015 148 1010 615 0 0 +14 767 1255 0 ?769 935 770 16 925 -0 0 769 935 33 14
 769 1259 0 ?752 767 768 16 923 -0 0 752 767 33 50 923 1386 0 769 778 925 0 +-.0
145069656770559 .015 .0237 0 1 0 0 0 1 50 778 1387 0 752 773 923 0 +-.0176569656
770559 .001 .0237 1 0 0 0 0 -1 17 880 0 859 874 872 89 84 720 0 886 -84 6 852 BA
MAAB83 4 854 1483275929425248e-34 .002128355544951825 .002 .939692620785908 84 6
 849 BANAAB83 4 851 0 .002128355544951825 .002 .939692620785908 84 6 841 BAMAAB8
3 4 843 -1399523715573192e-34 .002128355544951825 .002 .939692620785908 50 794 2
565 0 346 0 815 0 +-.00016058420871049 -.015 .01334075511991976 0 -1 0 1 0 0 17
 733 0 729 735 732 62 49 724 0 742 -19 30 138 0 10 0 20 16 0 S0 74 4 CI16 index_
map_offset0 0 1 dCCZ20 25 4 0 0 856 1074 23 14 0 0 0 0 0 0 0 0 0 0 0 0 0 0 0 0 8
1 1 1074 3086 1079 10 0 23 0 0 1080 81 1 23 3087 1077 10 1074 14 0 0 1078 80 1 1
077 5 1076 8038 0 0 0 0 0 0 0 0 0 TTTTTTTTTTTTTFTFT10 98 255 6 1078 80 97 114 11
6 32 49 79 14 1076 SDL/TYSA_UNAME80 1 1079 1083 1085 8040 0 0 0 0 3 5 0 0 0 TTTF
FFFFFFFFFFFFF2 83 3 1080 .615686274509804 .811764705882353 .929411764705882 79 1
7 1085 SDL/TYSA_COLOUR_280 1 5 1081 1084 8017 0 0 0 0 0 0 0 0 0 TTTTTTTTTTTTTFTF
T3 84 6 24 Part 179 13 1084 SDL/TYSA_NAME80 1 12 1082 1086 9000 0 0 0 0 3 5 0 0
 0 FTFFFFFFFFFFFFFFF3 84 17 13 MYIt17yfNMe2Pq/k879 14 1086 BTI/InstanceId74 20 8
 3 0 0 6 2 9 0 0 0 0 0 0 0 0 0 0 0 0 0 0 0 0 0 81 1 6 1 1077 1 0 2 0 0 1090 98 1
0 1090 65 115 115 101 109 98 108 121 32 49 84 10 7 Assembly 11 0 
